<svg width="30" height="30" viewBox="0 0 30 30" fill="none" xmlns="http://www.w3.org/2000/svg">
<path d="M16.7619 15L24.6369 7.1375C24.8723 6.90212 25.0045 6.58288 25.0045 6.25C25.0045 5.91713 24.8723 5.59788 24.6369 5.3625C24.4016 5.12712 24.0823 4.99489 23.7494 4.99489C23.4166 4.99489 23.0973 5.12712 22.8619 5.3625L14.9994 13.2375L7.13694 5.3625C6.90156 5.12712 6.58231 4.99489 6.24944 4.99489C5.91656 4.99489 5.59731 5.12712 5.36194 5.3625C5.12656 5.59788 4.99432 5.91713 4.99432 6.25C4.99432 6.58288 5.12656 6.90212 5.36194 7.1375L13.2369 15L5.36194 22.8625C5.24477 22.9787 5.15178 23.117 5.08832 23.2693C5.02486 23.4216 4.99219 23.585 4.99219 23.75C4.99219 23.915 5.02486 24.0784 5.08832 24.2307C5.15178 24.383 5.24477 24.5213 5.36194 24.6375C5.47814 24.7547 5.61639 24.8477 5.76871 24.9111C5.92104 24.9746 6.08442 25.0073 6.24944 25.0073C6.41445 25.0073 6.57783 24.9746 6.73016 24.9111C6.88248 24.8477 7.02073 24.7547 7.13694 24.6375L14.9994 16.7625L22.8619 24.6375C22.9781 24.7547 23.1164 24.8477 23.2687 24.9111C23.421 24.9746 23.5844 25.0073 23.7494 25.0073C23.9144 25.0073 24.0778 24.9746 24.2302 24.9111C24.3825 24.8477 24.5207 24.7547 24.6369 24.6375C24.7541 24.5213 24.8471 24.383 24.9105 24.2307C24.974 24.0784 25.0067 23.915 25.0067 23.75C25.0067 23.585 24.974 23.4216 24.9105 23.2693C24.8471 23.117 24.7541 22.9787 24.6369 22.8625L16.7619 15Z" fill="black"/>
</svg>
