<svg width="208" height="25" viewBox="0 0 208 25" fill="none" xmlns="http://www.w3.org/2000/svg">
<path d="M14.808 9.51C15.848 9.874 16.6627 10.446 17.252 11.226C17.8413 11.9887 18.136 12.916 18.136 14.008C18.136 15.6027 17.4947 16.8333 16.212 17.7C14.9293 18.5667 13.0747 19 10.648 19H0.82V0.799999H10.128C12.4507 0.799999 14.2187 1.23333 15.432 2.1C16.6453 2.94933 17.252 4.102 17.252 5.558C17.252 6.42467 17.0353 7.20467 16.602 7.898C16.186 8.574 15.588 9.11133 14.808 9.51ZM5.916 4.518V8.028H9.452C11.1853 8.028 12.052 7.43867 12.052 6.26C12.052 5.09867 11.1853 4.518 9.452 4.518H5.916ZM10.232 15.282C12.0347 15.282 12.936 14.6667 12.936 13.436C12.936 12.2053 12.0347 11.59 10.232 11.59H5.916V15.282H10.232ZM28.7584 14.164H25.9504V19H20.8024V0.799999H29.1224C30.7691 0.799999 32.1991 1.07733 33.4124 1.632C34.6258 2.16933 35.5618 2.94933 36.2204 3.972C36.8791 4.97733 37.2084 6.16467 37.2084 7.534C37.2084 8.85133 36.8964 10.004 36.2724 10.992C35.6658 11.9627 34.7904 12.7253 33.6464 13.28L37.5724 19H32.0604L28.7584 14.164ZM32.0084 7.534C32.0084 6.68467 31.7398 6.026 31.2024 5.558C30.6651 5.09 29.8678 4.856 28.8104 4.856H25.9504V10.186H28.8104C29.8678 10.186 30.6651 9.96067 31.2024 9.51C31.7398 9.042 32.0084 8.38333 32.0084 7.534ZM52.2425 15.464H44.5465L43.1165 19H37.8645L45.8985 0.799999H50.9685L59.0285 19H53.6725L52.2425 15.464ZM50.7345 11.668L48.3945 5.844L46.0545 11.668H50.7345ZM77.804 0.799999V19H73.566L65.532 9.302V19H60.488V0.799999H64.726L72.76 10.498V0.799999H77.804ZM81.4352 0.799999H90.0412C92.0346 0.799999 93.8026 1.17267 95.3452 1.918C96.8879 2.66333 98.0839 3.72067 98.9332 5.09C99.7826 6.45933 100.207 8.06267 100.207 9.9C100.207 11.7373 99.7826 13.3407 98.9332 14.71C98.0839 16.0793 96.8879 17.1367 95.3452 17.882C93.8026 18.6273 92.0346 19 90.0412 19H81.4352V0.799999ZM89.8332 14.892C91.3932 14.892 92.6412 14.45 93.5772 13.566C94.5306 12.682 95.0072 11.46 95.0072 9.9C95.0072 8.34 94.5306 7.118 93.5772 6.234C92.6412 5.35 91.3932 4.908 89.8332 4.908H86.5832V14.892H89.8332Z" fill="#FF005C"/>
<path d="M119.738 19.13C117.953 19.13 116.341 18.7313 114.902 17.934C113.481 17.1367 112.354 16.036 111.522 14.632C110.707 13.228 110.3 11.6507 110.3 9.9C110.3 8.14933 110.707 6.572 111.522 5.168C112.354 3.764 113.481 2.66333 114.902 1.866C116.341 1.06867 117.953 0.669999 119.738 0.669999C121.055 0.669999 122.269 0.886666 123.378 1.32C124.487 1.736 125.432 2.36 126.212 3.192L125.38 4.05C123.924 2.61133 122.061 1.892 119.79 1.892C118.265 1.892 116.878 2.23867 115.63 2.932C114.382 3.62533 113.403 4.58733 112.692 5.818C111.981 7.03133 111.626 8.392 111.626 9.9C111.626 11.408 111.981 12.7773 112.692 14.008C113.403 15.2213 114.382 16.1747 115.63 16.868C116.878 17.5613 118.265 17.908 119.79 17.908C122.043 17.908 123.907 17.18 125.38 15.724L126.212 16.582C125.432 17.414 124.479 18.0467 123.352 18.48C122.243 18.9133 121.038 19.13 119.738 19.13ZM140.966 12.526H129.292C129.327 13.5833 129.595 14.528 130.098 15.36C130.601 16.1747 131.277 16.8073 132.126 17.258C132.993 17.7087 133.963 17.934 135.038 17.934C135.922 17.934 136.737 17.778 137.482 17.466C138.245 17.1367 138.877 16.66 139.38 16.036L140.134 16.894C139.545 17.6047 138.799 18.1507 137.898 18.532C137.014 18.9133 136.052 19.104 135.012 19.104C133.66 19.104 132.455 18.8093 131.398 18.22C130.341 17.6307 129.509 16.816 128.902 15.776C128.313 14.736 128.018 13.5487 128.018 12.214C128.018 10.8967 128.295 9.718 128.85 8.678C129.422 7.62067 130.202 6.79733 131.19 6.208C132.178 5.61867 133.287 5.324 134.518 5.324C135.749 5.324 136.849 5.61867 137.82 6.208C138.808 6.78 139.579 7.586 140.134 8.626C140.706 9.666 140.992 10.8447 140.992 12.162L140.966 12.526ZM134.518 6.468C133.565 6.468 132.707 6.68467 131.944 7.118C131.181 7.534 130.566 8.132 130.098 8.912C129.647 9.67467 129.387 10.5413 129.318 11.512H139.718C139.666 10.5413 139.406 9.67467 138.938 8.912C138.47 8.14933 137.855 7.55133 137.092 7.118C136.329 6.68467 135.471 6.468 134.518 6.468ZM152.078 5.324C153.343 5.324 154.487 5.61867 155.51 6.208C156.532 6.79733 157.33 7.612 157.902 8.652C158.491 9.692 158.786 10.8793 158.786 12.214C158.786 13.5487 158.491 14.7447 157.902 15.802C157.33 16.842 156.532 17.6567 155.51 18.246C154.487 18.818 153.343 19.104 152.078 19.104C150.882 19.104 149.798 18.8267 148.828 18.272C147.857 17.7 147.103 16.9113 146.566 15.906V24.044H145.266V5.428H146.514V8.626C147.051 7.586 147.805 6.78 148.776 6.208C149.764 5.61867 150.864 5.324 152.078 5.324ZM152 17.934C153.04 17.934 153.976 17.6913 154.808 17.206C155.64 16.7207 156.29 16.0447 156.758 15.178C157.243 14.3113 157.486 13.3233 157.486 12.214C157.486 11.1047 157.243 10.1167 156.758 9.25C156.29 8.38333 155.64 7.70733 154.808 7.222C153.976 6.73667 153.04 6.494 152 6.494C150.96 6.494 150.024 6.73667 149.192 7.222C148.377 7.70733 147.727 8.38333 147.242 9.25C146.774 10.1167 146.54 11.1047 146.54 12.214C146.54 13.3233 146.774 14.3113 147.242 15.178C147.727 16.0447 148.377 16.7207 149.192 17.206C150.024 17.6913 150.96 17.934 152 17.934ZM171.047 12.006C173.04 12.3527 174.037 13.4707 174.037 15.36C174.037 16.5387 173.604 17.44 172.737 18.064C171.888 18.688 170.605 19 168.889 19H163.013V5.428H168.733C170.241 5.428 171.42 5.73133 172.269 6.338C173.136 6.92733 173.569 7.77667 173.569 8.886C173.569 9.68333 173.344 10.3507 172.893 10.888C172.46 11.408 171.844 11.7807 171.047 12.006ZM164.287 11.616H168.655C169.816 11.616 170.709 11.3993 171.333 10.966C171.957 10.5153 172.269 9.874 172.269 9.042C172.269 8.19267 171.957 7.56 171.333 7.144C170.726 6.71067 169.834 6.494 168.655 6.494H164.287V11.616ZM168.863 17.934C171.446 17.934 172.737 17.0587 172.737 15.308C172.737 14.3893 172.442 13.7133 171.853 13.28C171.264 12.8467 170.336 12.63 169.071 12.63H164.287V17.934H168.863ZM178.654 5.428H179.954V16.998L189.626 5.428H190.77V19H189.47V7.43L179.798 19H178.654V5.428ZM201.862 19.104C200.545 19.104 199.366 18.8093 198.326 18.22C197.286 17.6307 196.472 16.816 195.882 15.776C195.293 14.7187 194.998 13.5313 194.998 12.214C194.998 10.8793 195.293 9.692 195.882 8.652C196.472 7.59467 197.286 6.78 198.326 6.208C199.366 5.61867 200.545 5.324 201.862 5.324C202.954 5.324 203.942 5.54067 204.826 5.974C205.728 6.39 206.456 7.00533 207.01 7.82L206.048 8.522C205.563 7.846 204.956 7.34333 204.228 7.014C203.518 6.66733 202.729 6.494 201.862 6.494C200.805 6.494 199.852 6.73667 199.002 7.222C198.17 7.69 197.512 8.35733 197.026 9.224C196.558 10.0907 196.324 11.0873 196.324 12.214C196.324 13.3407 196.558 14.3373 197.026 15.204C197.512 16.0707 198.17 16.7467 199.002 17.232C199.852 17.7 200.805 17.934 201.862 17.934C202.729 17.934 203.518 17.7693 204.228 17.44C204.956 17.0933 205.563 16.582 206.048 15.906L207.01 16.608C206.456 17.4227 205.728 18.0467 204.826 18.48C203.942 18.896 202.954 19.104 201.862 19.104Z" fill="black"/>
</svg>
